<svg width="143" height="153" viewBox="0 0 143 153" fill="none" xmlns="http://www.w3.org/2000/svg">
<g clip-path="url(#clip0_0_1)">
<g clip-path="url(#clip1_0_1)">
<mask id="mask0_0_1" style="mask-type:luminance" maskUnits="userSpaceOnUse" x="-132" y="-255" width="400" height="360">
<path d="M68 60L268 -205V-255H-132V105L68 60Z" fill="white"/>
</mask>
<g mask="url(#mask0_0_1)">
<path d="M64.4355 137.319C45.3861 137.319 29.862 131.134 17.8633 118.765C5.86458 106.271 -0.134766 90.0977 -0.134766 70.2441C-0.134766 49.2773 5.95736 32.2689 18.1416 19.2188C30.264 6.23047 46.4066 -0.263672 66.5693 -0.263672C85.557 -0.263672 100.896 5.95215 112.585 18.3838C124.336 30.7536 130.212 47.1436 130.212 67.5537C130.212 88.3968 124.12 105.251 111.936 118.115C111.503 118.548 111.101 118.981 110.729 119.414C110.358 119.785 109.956 120.156 109.523 120.527L143.2 152.905H101.267L83.6396 135C77.8258 136.546 71.4245 137.319 64.4355 137.319ZM65.7344 25.5273C55.2819 25.5273 46.9323 29.4857 40.6855 37.4023C34.5007 45.2572 31.4082 55.6787 31.4082 68.667C31.4082 81.8408 34.5007 92.2624 40.6855 99.9316C46.8704 107.601 54.9727 111.436 64.9922 111.436C75.321 111.436 83.516 107.725 89.5771 100.303C95.6383 92.7572 98.6689 82.3975 98.6689 69.2236C98.6689 55.4932 95.7311 44.7624 89.8555 37.0312C84.0417 29.362 76.0013 25.5273 65.7344 25.5273Z" fill="#B90E32"/>
</g>
<mask id="mask1_0_1" style="mask-type:luminance" maskUnits="userSpaceOnUse" x="-132" y="60" width="200" height="285">
<path d="M68 60L-132 105V345H8L68 60Z" fill="white"/>
</mask>
<g mask="url(#mask1_0_1)">
<path d="M64.4355 137.319C45.3861 137.319 29.862 131.134 17.8633 118.765C5.86458 106.271 -0.134766 90.0977 -0.134766 70.2441C-0.134766 49.2773 5.95736 32.2689 18.1416 19.2188C30.264 6.23047 46.4066 -0.263672 66.5693 -0.263672C85.557 -0.263672 100.896 5.95215 112.585 18.3838C124.336 30.7536 130.212 47.1436 130.212 67.5537C130.212 88.3968 124.12 105.251 111.936 118.115C111.503 118.548 111.101 118.981 110.729 119.414C110.358 119.785 109.956 120.156 109.523 120.527L143.2 152.905H101.267L83.6396 135C77.8258 136.546 71.4245 137.319 64.4355 137.319ZM65.7344 25.5273C55.2819 25.5273 46.9323 29.4857 40.6855 37.4023C34.5007 45.2572 31.4082 55.6787 31.4082 68.667C31.4082 81.8408 34.5007 92.2624 40.6855 99.9316C46.8704 107.601 54.9727 111.436 64.9922 111.436C75.321 111.436 83.516 107.725 89.5771 100.303C95.6383 92.7572 98.6689 82.3975 98.6689 69.2236C98.6689 55.4932 95.7311 44.7624 89.8555 37.0312C84.0417 29.362 76.0013 25.5273 65.7344 25.5273Z" fill="#002552"/>
</g>
<mask id="mask2_0_1" style="mask-type:luminance" maskUnits="userSpaceOnUse" x="8" y="-205" width="260" height="550">
<path d="M68 60L8 345H268V-205L68 60Z" fill="white"/>
</mask>
<g mask="url(#mask2_0_1)">
<path d="M64.4355 137.319C45.3861 137.319 29.862 131.134 17.8633 118.765C5.86458 106.271 -0.134766 90.0977 -0.134766 70.2441C-0.134766 49.2773 5.95736 32.2689 18.1416 19.2188C30.264 6.23047 46.4066 -0.263672 66.5693 -0.263672C85.557 -0.263672 100.896 5.95215 112.585 18.3838C124.336 30.7536 130.212 47.1436 130.212 67.5537C130.212 88.3968 124.12 105.251 111.936 118.115C111.503 118.548 111.101 118.981 110.729 119.414C110.358 119.785 109.956 120.156 109.523 120.527L143.2 152.905H101.267L83.6396 135C77.8258 136.546 71.4245 137.319 64.4355 137.319ZM65.7344 25.5273C55.2819 25.5273 46.9323 29.4857 40.6855 37.4023C34.5007 45.2572 31.4082 55.6787 31.4082 68.667C31.4082 81.8408 34.5007 92.2624 40.6855 99.9316C46.8704 107.601 54.9727 111.436 64.9922 111.436C75.321 111.436 83.516 107.725 89.5771 100.303C95.6383 92.7572 98.6689 82.3975 98.6689 69.2236C98.6689 55.4932 95.7311 44.7624 89.8555 37.0312C84.0417 29.362 76.0013 25.5273 65.7344 25.5273Z" fill="#FABC0F"/>
</g>
</g>
</g>
<defs>
<clipPath id="clip0_0_1">
<rect width="143" height="153" fill="white"/>
</clipPath>
<clipPath id="clip1_0_1">
<rect width="1400" height="600" fill="white" transform="translate(-332 -246)"/>
</clipPath>
</defs>
</svg>
